<svg version="1.2" xmlns="http://www.w3.org/2000/svg" viewBox="0 0 308 92" width="308" height="92"><defs><clipPath clipPathUnits="userSpaceOnUse" id="cp1"><path d="m0 0h307.87v64h-307.87z"/></clipPath><linearGradient id="P" gradientUnits="userSpaceOnUse"/><linearGradient id="g1" x2="1" href="#P" gradientTransform="matrix(31.404,-51.457,25.187,15.372,259.964,52.516)"><stop stop-color="#ffa727"/><stop offset=".05" stop-color="#fe9f20"/><stop offset=".2" stop-color="#fd8d0e"/><stop offset=".36" stop-color="#fc8103"/><stop offset=".53" stop-color="#fc7e00"/><stop offset="1" stop-color="#ff4800"/></linearGradient><linearGradient id="g2" x2="1" href="#P" gradientTransform="matrix(20.085,-32.909,23.117,14.109,292.572,47.212)"><stop stop-color="#ffa727"/><stop offset=".05" stop-color="#fe9f20"/><stop offset=".2" stop-color="#fd8d0e"/><stop offset=".36" stop-color="#fc8103"/><stop offset=".53" stop-color="#fc7e00"/><stop offset="1" stop-color="#ff4800"/></linearGradient><linearGradient id="g3" x2="1" href="#P" gradientTransform="matrix(5.597,14.747,-8.145,3.091,261.738,20.437)"><stop stop-color="#ffa727"/><stop offset=".05" stop-color="#fe9f20"/><stop offset=".2" stop-color="#fd8d0e"/><stop offset=".36" stop-color="#fc8103"/><stop offset=".53" stop-color="#fc7e00"/><stop offset="1" stop-color="#ff4800"/></linearGradient></defs><style>.a{fill:url(#g1)}.b{fill:url(#g2)}.c{fill:url(#g3)}.d{fill:#8c919a}</style><g clip-path="url(#cp1)"><filter id="f0"><feFlood flood-color="#000000" flood-opacity="1" /><feBlend mode="normal" in2="SourceGraphic"/><feComposite in2="SourceAlpha" operator="in" /></filter><g filter="url(#f0)"><path class="a" d="m304.8 9.3c-3.9 2.6-9.3 6.7-14.4 13-2.5 3-4.3 5.9-8.4 13.1-3.2 5.8-7.4 13.6-12 23.3-1.8-6.6-3.6-16.7-2.5-29.1 1.2-13.2 5.3-23.4 8.4-29.6 1.5 2.7 3.4 5.9 6.2 9.1 1.7 2.1 3.5 3.9 5.1 5.4-2.9 2.4-6.7 6.1-10.1 11.5-2.8 4.4-4.3 8.5-5.3 11.6 1.9-4 5.3-10.1 11.5-16 8.1-7.7 16.8-10.9 21.5-12.3z"/><path class="b" d="m299.5 21.1c-1.3 3.9-1.9 7.4-2.2 10.3 1.8 2 3.8 4.4 5.6 7.4 2.3 3.5 3.9 6.9 5 9.7-3.8-1.6-8.1-3.2-12.9-4.6-4.6-1.4-8.9-2.3-12.8-3 0.7-1.7 1.8-4 3.2-6.7 1.7-3.4 4-7.9 7.5-12.5 2.4-3.3 6.2-7.7 12-12.1-1.8 2.8-3.9 6.7-5.4 11.5z"/><path class="c" d="m267.2 22.4c-1.1 0.3-2.8 0.5-4.7 0.4-2 0-3.6-0.5-4.7-0.8 0.6 1.9 1.5 4.2 2.8 6.6 1.6 3.1 3.4 5.5 5 7.3 0-2.2 0.1-4.6 0.5-7.2 0.2-2.3 0.7-4.4 1.1-6.3z"/><path class="d" d="m31.3 24.9v6.8h-11.6v31.9h-8.1v-31.9h-11.6v-6.8z"/><path class="d" d="m50.5 37.1l-0.7 1.1-2.9 5v-0.1q-1.9-1-4-1-1.5 0-2.8 0.5-1.3 0.4-2.3 1.3-1 0.8-1.7 2-0.7 1.2-0.9 2.5v15.2h-7.7v-27.6h7.7v3.6q2.9-4.1 8.7-4.1 3.4 0 6.5 1.6z"/><path class="d" d="m78.6 36.1v27.8h-7.7v-1.5q-0.3 0.2-0.7 0.3c-0.8 0.4-2.8 1.3-5.4 1.3q-6.8 0-9.7-3.6-2.7-3.3-2.7-10.4v-14h7.8v14q0 1.5 0 2.9 0.1 1.3 0.7 2.4 0.5 1 1.6 1.7 1.1 0.6 3.2 0.6 0.7 0 1.4-0.1c0.8-0.2 2.1-0.4 3.4-1.1q0.2-0.1 0.4-0.2v-20.1z"/><path class="d" d="m96.9 47.2q1.8 0.6 3.4 1.2 1.5 0.6 2.7 1.5 1.1 0.9 1.8 2.2 0.6 1.2 0.6 2.9v0.1q0 4.2-2.8 6.5-2.9 2.4-8 2.4-3.2 0-6.3-1.1-3.1-1.1-5.8-3.1v-0.1l3.8-5.9h0.1q1.7 1.8 3.8 2.7 2.2 0.9 4.6 0.9 3.3 0 3.3-2.1 0-1-1.1-1.5-1-0.4-2.5-0.9-0.3-0.1-0.5-0.1-0.3-0.1-0.6-0.2-1.7-0.4-3.3-0.9-1.7-0.5-3.1-1.5-1.3-0.9-2.2-2.3-0.9-1.4-0.9-3.6v-0.1q0-1.9 0.7-3.5 0.8-1.6 2.1-2.8 1.4-1.1 3.3-1.7 1.9-0.7 4.2-0.7 2.7 0 5.5 0.8 2.7 0.8 5.1 2.4v0.1l-3.4 6.1-0.1-0.1q-1.3-1.2-3.2-2-1.9-0.7-4.1-0.7-0.4 0-0.9 0-0.5 0.1-0.9 0.3-0.4 0.2-0.7 0.6-0.3 0.4-0.3 1 0 0.5 0.5 0.9 0.4 0.4 1.1 0.8 0.7 0.4 1.6 0.7 0.9 0.3 1.7 0.6 0.2 0 0.4 0.1 0.2 0 0.4 0.1z"/><path class="d" d="m119.1 45v9.1q0 1.3 0.9 2.2 1 0.8 2.3 0.9h5.4v6.4h-5.4q-2.2-0.1-4.2-0.8-1.9-0.8-3.4-2.3-1.4-1.4-2.2-3.2-0.9-1.9-0.9-4.1v-8.2h-4v-6.2h4v-10h7.5v10h8.6v6.2z"/><path class="d" d="m169.7 24.9v38.7h-7.9v-22l-10.3 15.2-10.3-15.2v22h-7.9v-38.7h6l12.2 18 12.1-18z"/><path class="d" d="m204.4 36v27.6h-7.4v-13.9q0-1.6-0.6-3-0.7-1.3-1.8-2.4-1.1-1-2.5-1.6-1.4-0.6-3-0.6-1.7 0-3 0.6-1.4 0.6-2.5 1.6-1.1 1.1-1.8 2.5-0.6 1.4-0.6 3c0 1.1 0.2 2 0.6 2.9q0.7 1.4 1.8 2.5 1 1 2.5 1.6 1.4 0.6 3 0.6 1.7 0 3-0.6v0.1l2.9 5h-0.1q-2.8 2.1-6.8 2.1-3 0-5.6-1.1-2.7-1.1-4.7-3-1.9-2-3.1-4.6-1.1-2.6-1.1-5.5c0-1.9 0.3-3.8 1.1-5.5q1.2-2.6 3.1-4.6 2-1.9 4.7-3 2.6-1.2 5.6-1.2c2 0 3.6 0.4 5.1 1.1q2.2 1.1 3.8 3.1v-3.7z"/><path class="d" d="m219.3 45v9.1q0 1.3 0.9 2.2 0.9 0.8 2.2 0.9h5.5v6.4h-5.5q-2.2-0.1-4.1-0.8-2-0.8-3.4-2.3-1.4-1.4-2.3-3.2-0.8-1.9-0.8-4.1v-8.2h-4.1v-6.2h4.1v-10h7.5v10h8.6v6.2z"/><path class="d" d="m259.1 44.2q-1.2-2.6-3.1-4.5-2-1.9-4.7-3-2.6-1.2-5.6-1.2-3 0-5.7 1.2-2.7 1.1-4.7 3-1.9 1.9-3.1 4.5-1.1 2.6-1.1 5.6c0 2 0.4 3.8 1.1 5.5q1.2 2.6 3.1 4.6 2 1.9 4.7 3 2.7 1.1 5.7 1.1 3.5 0 6.6-1.6 3.1-1.5 5.2-4.3l0.1-0.1-6.6-2.8-0.1-0.1v0.1q-1.1 1.4-2.4 1.8-1.3 0.4-2.8 0.4-1.7 0-3-0.7-1.4-0.8-2.3-1.9-0.8-0.8-1.2-1.8h20.6l0.1-0.1q0.3-1.5 0.3-3.1 0-3-1.1-5.6zm-20.4 3.2q0.1-0.4 0.2-0.7 0.6-1.4 1.6-2.4 1-1 2.3-1.6 1.4-0.6 2.9-0.6 2.5 0 4.3 1.5 1.8 1.5 2.6 3.8z"/></g></g></svg>